<?xml version="1.0" encoding="utf-8"?>
<!-- Generator: Adobe Illustrator 28.0.0, SVG Export Plug-In . SVG Version: 6.00 Build 0)  -->
<svg version="1.1" id="Layer_1" xmlns="http://www.w3.org/2000/svg" xmlns:xlink="http://www.w3.org/1999/xlink" x="0px" y="0px"
	 viewBox="0 0 1411 733" style="enable-background:new 0 0 1411 733;" xml:space="preserve">
<style type="text/css">
	.st0{fill:none;}
	.st1{fill:url(#SVGID_1_);}
	.st2{fill:#F2F2F2;}
	.st3{fill:none;stroke:#00A99D;stroke-width:5;stroke-miterlimit:10;}
	.st4{fill:none;stroke:#39B54A;stroke-width:5;stroke-miterlimit:10;}
	.st5{fill:none;stroke:#00A99D;stroke-width:8;stroke-miterlimit:10;}
	.st6{fill:#00A99D;}
	.st7{fill:none;stroke:#39B54A;stroke-width:8;stroke-miterlimit:10;}
	.st8{fill:#39B54A;}
	.st9{fill:none;stroke:#F2F2F2;stroke-width:5;stroke-miterlimit:10;}
	.st10{fill:none;stroke:#F2F2F2;stroke-width:8;stroke-miterlimit:10;}
</style>
<g>
	<g>
		<path class="st0" d="M997,386.18H415c-16.57,0-30-13.43-30-30v-298c0-16.57,13.43-30,30-30h582c16.57,0,30,13.43,30,30v298
			C1027,372.75,1013.57,386.18,997,386.18z"/>
		
			<linearGradient id="SVGID_1_" gradientUnits="userSpaceOnUse" x1="858.2717" y1="263.0777" x2="553.7283" y2="790.5623" gradientTransform="matrix(1 0 0 -1 0 734)">
			<stop  offset="0" style="stop-color:#E90000"/>
			<stop  offset="0.0127" style="stop-color:#EA000B"/>
			<stop  offset="0.084" style="stop-color:#F20143"/>
			<stop  offset="0.1502" style="stop-color:#F7026F"/>
			<stop  offset="0.209" style="stop-color:#FC038F"/>
			<stop  offset="0.2585" style="stop-color:#FE03A2"/>
			<stop  offset="0.2925" style="stop-color:#FF03A9"/>
			<stop  offset="0.3419" style="stop-color:#FB05A9"/>
			<stop  offset="0.3904" style="stop-color:#EF0AAA"/>
			<stop  offset="0.4384" style="stop-color:#DC13AC"/>
			<stop  offset="0.4863" style="stop-color:#C01FAE"/>
			<stop  offset="0.5341" style="stop-color:#9C2FB1"/>
			<stop  offset="0.5817" style="stop-color:#7043B5"/>
			<stop  offset="0.6293" style="stop-color:#3C5AB9"/>
			<stop  offset="0.6758" style="stop-color:#0274BE"/>
			<stop  offset="0.6772" style="stop-color:#0075BE"/>
			<stop  offset="0.6903" style="stop-color:#007CAC"/>
			<stop  offset="0.7277" style="stop-color:#008E7F"/>
			<stop  offset="0.7666" style="stop-color:#009D58"/>
			<stop  offset="0.8066" style="stop-color:#00A939"/>
			<stop  offset="0.8479" style="stop-color:#00B320"/>
			<stop  offset="0.8912" style="stop-color:#00BA0F"/>
			<stop  offset="0.9377" style="stop-color:#00BE04"/>
			<stop  offset="0.9931" style="stop-color:#00BF01"/>
		</linearGradient>
		<path class="st1" d="M997,43.18c8.27,0,15,6.73,15,15v298c0,8.27-6.73,15-15,15H415c-8.27,0-15-6.73-15-15v-298
			c0-8.27,6.73-15,15-15L997,43.18 M997,28.18H415c-16.57,0-30,13.43-30,30v298c0,16.57,13.43,30,30,30h582c16.57,0,30-13.43,30-30
			v-298C1027,41.61,1013.57,28.18,997,28.18L997,28.18z"/>
	</g>
	<g>
		<g>
			<path class="st2" d="M638.58,188.58h11.8l8.11,19.77h0.41l8.11-19.77h11.8v34.91h-9.27v-20.18h-0.27l-7.77,19.91h-5.59
				l-7.77-20.05h-0.27v20.32h-9.27v-34.91H638.58z"/>
			<path class="st2" d="M696.05,223.97c-2.84,0-5.27-0.56-7.3-1.7c-2.02-1.13-3.57-2.71-4.65-4.74s-1.62-4.38-1.62-7.07
				c0-2.68,0.54-5.04,1.62-7.06c1.08-2.03,2.63-3.61,4.65-4.74s4.45-1.7,7.3-1.7s5.27,0.57,7.29,1.7c2.02,1.13,3.57,2.71,4.65,4.74
				s1.62,4.38,1.62,7.06s-0.54,5.04-1.62,7.07c-1.08,2.03-2.63,3.61-4.65,4.74C701.33,223.41,698.89,223.97,696.05,223.97z
				 M696.12,217.02c0.79,0,1.48-0.27,2.06-0.8s1.03-1.3,1.35-2.28c0.32-0.99,0.48-2.16,0.48-3.53c0-1.38-0.16-2.55-0.48-3.54
				c-0.32-0.98-0.77-1.74-1.35-2.28s-1.27-0.8-2.06-0.8c-0.84,0-1.56,0.27-2.17,0.8c-0.6,0.53-1.06,1.29-1.38,2.28
				c-0.32,0.98-0.48,2.16-0.48,3.54c0,1.36,0.16,2.54,0.48,3.53s0.78,1.75,1.38,2.28C694.56,216.75,695.28,217.02,696.12,217.02z"/>
			<path class="st2" d="M722.92,223.83c-1.86,0-3.58-0.49-5.14-1.47s-2.81-2.46-3.75-4.45s-1.41-4.49-1.41-7.52
				c0-3.16,0.49-5.73,1.47-7.7c0.98-1.98,2.25-3.43,3.82-4.35s3.21-1.38,4.94-1.38c1.29,0,2.43,0.22,3.41,0.67s1.8,1.05,2.46,1.79
				s1.16,1.56,1.5,2.45h0.14v-13.3h9.41v34.91h-9.34v-4.3h-0.2c-0.36,0.89-0.88,1.68-1.56,2.38c-0.68,0.7-1.49,1.25-2.46,1.65
				C725.24,223.63,724.14,223.83,722.92,223.83z M726.39,216.61c0.86,0,1.61-0.25,2.22-0.76c0.62-0.51,1.1-1.22,1.43-2.15
				s0.5-2.03,0.5-3.3c0-1.3-0.17-2.41-0.5-3.33c-0.33-0.93-0.81-1.64-1.43-2.13s-1.36-0.74-2.22-0.74s-1.6,0.25-2.21,0.74
				c-0.61,0.49-1.07,1.21-1.4,2.13c-0.32,0.93-0.49,2.04-0.49,3.33s0.16,2.41,0.49,3.33c0.32,0.93,0.79,1.64,1.4,2.13
				C724.79,216.36,725.53,216.61,726.39,216.61z"/>
			<path class="st2" d="M756.94,223.97c-2.79,0-5.2-0.54-7.22-1.61c-2.02-1.07-3.57-2.62-4.65-4.64s-1.63-4.43-1.63-7.25
				c0-2.7,0.55-5.07,1.64-7.09c1.09-2.02,2.63-3.6,4.62-4.72s4.33-1.69,7.04-1.69c1.98,0,3.77,0.31,5.37,0.92s2.97,1.5,4.11,2.67
				s2.01,2.58,2.62,4.24s0.92,3.53,0.92,5.61v2.18h-23.39v-5.18h14.73c-0.01-0.75-0.2-1.41-0.57-1.99s-0.86-1.02-1.48-1.35
				c-0.62-0.32-1.32-0.49-2.11-0.49c-0.76,0-1.46,0.16-2.1,0.49s-1.14,0.77-1.53,1.34c-0.38,0.57-0.58,1.23-0.61,1.99v5.59
				c0,0.84,0.18,1.59,0.53,2.25c0.35,0.66,0.86,1.18,1.52,1.55s1.45,0.56,2.39,0.56c0.65,0,1.24-0.09,1.78-0.27
				c0.54-0.18,1-0.45,1.39-0.79s0.67-0.76,0.85-1.25h8.59c-0.3,1.82-0.99,3.4-2.1,4.73c-1.1,1.34-2.56,2.37-4.37,3.1
				S759.36,223.97,756.94,223.97z"/>
			<path class="st2" d="M782.98,188.58v34.91h-9.41v-34.91H782.98z"/>
		</g>
	</g>
</g>
<g>
	<path class="st3" d="M318.94,268.18H38.08c-6.67,0-12.07-5.4-12.07-12.07v-97.86c0-6.67,5.4-12.07,12.07-12.07h280.86
		c6.67,0,12.07,5.4,12.07,12.07v97.86C331.01,262.77,325.6,268.18,318.94,268.18z"/>
	<g>
		<g>
			<path class="st2" d="M107.6,214.94v-21.82h14.45v3.8h-9.83v5.2h8.87v3.8h-8.87v9.01h-4.62V214.94z"/>
			<path class="st2" d="M132.52,215.26c-1.68,0-3.13-0.34-4.34-1.03s-2.14-1.66-2.8-2.92c-0.65-1.26-0.98-2.75-0.98-4.48
				c0-1.68,0.33-3.16,0.98-4.43c0.65-1.27,1.57-2.26,2.76-2.97c1.19-0.71,2.59-1.07,4.19-1.07c1.08,0,2.09,0.17,3.02,0.52
				c0.93,0.34,1.75,0.86,2.45,1.55s1.24,1.55,1.64,2.59c0.39,1.04,0.59,2.26,0.59,3.65v1.25h-13.82v-2.81h9.55
				c0-0.65-0.14-1.23-0.43-1.74c-0.28-0.5-0.68-0.9-1.18-1.19c-0.5-0.29-1.08-0.43-1.74-0.43c-0.69,0-1.3,0.16-1.83,0.47
				c-0.53,0.32-0.94,0.74-1.24,1.27s-0.45,1.12-0.46,1.76v2.67c0,0.81,0.15,1.51,0.45,2.1c0.3,0.59,0.73,1.04,1.28,1.36
				s1.21,0.48,1.97,0.48c0.5,0,0.97-0.07,1.38-0.21c0.42-0.14,0.78-0.35,1.08-0.64c0.3-0.28,0.53-0.63,0.68-1.04l4.2,0.28
				c-0.21,1.01-0.65,1.89-1.3,2.64c-0.66,0.75-1.5,1.33-2.54,1.75C135.06,215.06,133.87,215.26,132.52,215.26z"/>
			<path class="st2" d="M147.66,215.25c-1.04,0-1.97-0.18-2.79-0.55c-0.82-0.37-1.46-0.91-1.93-1.63s-0.71-1.62-0.71-2.7
				c0-0.91,0.17-1.67,0.5-2.29s0.79-1.12,1.36-1.49c0.58-0.38,1.23-0.66,1.97-0.85c0.73-0.19,1.51-0.33,2.32-0.41
				c0.95-0.1,1.72-0.19,2.3-0.28s1-0.22,1.27-0.4s0.39-0.44,0.39-0.79v-0.06c0-0.67-0.21-1.2-0.63-1.57
				c-0.42-0.37-1.02-0.55-1.79-0.55c-0.82,0-1.47,0.18-1.95,0.54s-0.8,0.81-0.96,1.35l-4.2-0.34c0.21-0.99,0.63-1.86,1.26-2.58
				c0.62-0.73,1.43-1.29,2.42-1.68s2.14-0.59,3.45-0.59c0.91,0,1.78,0.11,2.62,0.32s1.58,0.54,2.23,0.99
				c0.65,0.45,1.16,1.02,1.54,1.72c0.38,0.7,0.56,1.54,0.56,2.51v11.04h-4.3v-2.27h-0.13c-0.26,0.51-0.61,0.96-1.05,1.35
				s-0.97,0.69-1.59,0.91C149.18,215.15,148.47,215.25,147.66,215.25z M148.96,212.12c0.67,0,1.26-0.13,1.77-0.4
				c0.51-0.27,0.91-0.63,1.2-1.08s0.44-0.97,0.44-1.54v-1.74c-0.14,0.09-0.34,0.18-0.58,0.25c-0.25,0.08-0.52,0.14-0.83,0.2
				s-0.61,0.11-0.92,0.16s-0.58,0.09-0.83,0.12c-0.53,0.08-1,0.2-1.4,0.37s-0.71,0.4-0.93,0.69c-0.22,0.29-0.33,0.64-0.33,1.07
				c0,0.62,0.23,1.09,0.68,1.41C147.69,211.96,148.26,212.12,148.96,212.12z"/>
			<path class="st2" d="M169.11,198.58v3.41h-9.85v-3.41H169.11z M161.49,194.66h4.54v15.26c0,0.42,0.06,0.74,0.19,0.97
				s0.31,0.39,0.54,0.49c0.23,0.09,0.5,0.14,0.8,0.14c0.21,0,0.43-0.02,0.64-0.06s0.38-0.07,0.49-0.09l0.71,3.38
				c-0.23,0.07-0.55,0.15-0.96,0.25s-0.91,0.16-1.5,0.18c-1.09,0.04-2.05-0.1-2.87-0.44s-1.46-0.85-1.91-1.56s-0.68-1.59-0.67-2.66
				V194.66z"/>
			<path class="st2" d="M182.55,207.98v-9.4h4.54v16.36h-4.36v-2.97h-0.17c-0.37,0.96-0.98,1.73-1.84,2.31s-1.9,0.87-3.13,0.87
				c-1.09,0-2.06-0.25-2.89-0.75s-1.48-1.2-1.94-2.12c-0.47-0.92-0.7-2.01-0.71-3.29v-10.42h4.54v9.61
				c0.01,0.97,0.27,1.73,0.78,2.29s1.2,0.84,2.06,0.84c0.55,0,1.06-0.13,1.54-0.38c0.47-0.25,0.86-0.63,1.15-1.12
				S182.56,208.71,182.55,207.98z"/>
			<path class="st2" d="M190.71,214.94v-16.36h4.4v2.86h0.17c0.3-1.02,0.8-1.79,1.5-2.31s1.51-0.78,2.43-0.78
				c0.23,0,0.47,0.01,0.74,0.04s0.49,0.07,0.69,0.12v4.03c-0.21-0.06-0.51-0.12-0.88-0.17c-0.38-0.05-0.72-0.08-1.03-0.08
				c-0.67,0-1.26,0.14-1.78,0.43s-0.93,0.69-1.24,1.2c-0.3,0.51-0.45,1.1-0.45,1.77v9.26L190.71,214.94L190.71,214.94z"/>
			<path class="st2" d="M210.43,215.26c-1.68,0-3.13-0.34-4.34-1.03s-2.14-1.66-2.8-2.92s-0.98-2.75-0.98-4.48
				c0-1.68,0.33-3.16,0.98-4.43s1.57-2.26,2.76-2.97c1.19-0.71,2.59-1.07,4.19-1.07c1.08,0,2.09,0.17,3.02,0.52s1.75,0.86,2.45,1.55
				s1.25,1.55,1.64,2.59s0.59,2.26,0.59,3.65v1.25h-13.82v-2.81h9.54c0-0.65-0.14-1.23-0.43-1.74s-0.68-0.9-1.18-1.19
				c-0.5-0.29-1.08-0.43-1.74-0.43c-0.69,0-1.3,0.16-1.83,0.47c-0.53,0.32-0.94,0.74-1.24,1.27s-0.45,1.12-0.46,1.76v2.67
				c0,0.81,0.15,1.51,0.45,2.1c0.3,0.59,0.73,1.04,1.28,1.36s1.21,0.48,1.97,0.48c0.5,0,0.97-0.07,1.38-0.21
				c0.42-0.14,0.78-0.35,1.08-0.64c0.3-0.28,0.53-0.63,0.68-1.04l4.2,0.28c-0.21,1.01-0.65,1.89-1.31,2.64s-1.5,1.33-2.54,1.75
				C212.97,215.06,211.78,215.26,210.43,215.26z"/>
			<path class="st2" d="M234.52,203.25l-4.15,0.26c-0.07-0.36-0.22-0.68-0.46-0.96c-0.23-0.29-0.54-0.52-0.92-0.69
				s-0.83-0.26-1.36-0.26c-0.7,0-1.3,0.15-1.78,0.44c-0.48,0.29-0.72,0.69-0.72,1.18c0,0.39,0.16,0.72,0.47,0.99
				s0.85,0.49,1.61,0.65l2.96,0.6c1.59,0.33,2.78,0.85,3.56,1.58s1.17,1.68,1.17,2.86c0,1.07-0.31,2.01-0.94,2.82
				c-0.63,0.81-1.49,1.44-2.58,1.89s-2.35,0.68-3.77,0.68c-2.17,0-3.89-0.45-5.17-1.36s-2.03-2.14-2.25-3.7l4.46-0.23
				c0.13,0.66,0.46,1.16,0.98,1.51c0.52,0.34,1.18,0.52,1.99,0.52c0.8,0,1.44-0.15,1.92-0.46s0.73-0.71,0.74-1.2
				c-0.01-0.41-0.18-0.75-0.52-1.02s-0.87-0.47-1.58-0.61l-2.83-0.57c-1.6-0.32-2.79-0.87-3.56-1.66c-0.78-0.79-1.17-1.79-1.17-3.02
				c0-1.05,0.29-1.96,0.86-2.72s1.38-1.35,2.42-1.76c1.04-0.41,2.26-0.62,3.66-0.62c2.07,0,3.69,0.44,4.88,1.31
				C233.62,200.55,234.32,201.74,234.52,203.25z"/>
		</g>
	</g>
</g>
<g>
	<path class="st4" d="M1374.83,268.18h-280.86c-6.67,0-12.07-5.4-12.07-12.07v-97.86c0-6.67,5.4-12.07,12.07-12.07h280.86
		c6.67,0,12.07,5.4,12.07,12.07v97.86C1386.9,262.77,1381.5,268.18,1374.83,268.18z"/>
	<g>
		<g>
			<path class="st2" d="M1164.15,198.49v-21.82h8.61c1.66,0,3.06,0.31,4.23,0.94c1.17,0.63,2.05,1.5,2.67,2.61
				c0.61,1.11,0.92,2.39,0.92,3.84s-0.31,2.73-0.94,3.84s-1.53,1.97-2.71,2.59c-1.18,0.62-2.61,0.93-4.29,0.93h-5.49v-3.7h4.74
				c0.89,0,1.62-0.15,2.2-0.46c0.58-0.31,1.01-0.74,1.3-1.29c0.29-0.55,0.43-1.18,0.43-1.9s-0.14-1.36-0.43-1.9s-0.72-0.97-1.3-1.27
				c-0.58-0.3-1.32-0.45-2.22-0.45h-3.11v18.05h-4.61V198.49z"/>
			<path class="st2" d="M1183.49,198.49v-16.36h4.4v2.86h0.17c0.3-1.02,0.8-1.78,1.5-2.31s1.51-0.78,2.43-0.78
				c0.23,0,0.47,0.01,0.73,0.04s0.49,0.07,0.69,0.12v4.03c-0.21-0.06-0.51-0.12-0.88-0.17c-0.38-0.05-0.72-0.07-1.03-0.07
				c-0.67,0-1.26,0.14-1.78,0.43s-0.93,0.69-1.24,1.2s-0.45,1.1-0.45,1.77v9.26h-4.54V198.49z"/>
			<path class="st2" d="M1203.21,198.81c-1.68,0-3.13-0.34-4.34-1.03s-2.14-1.66-2.8-2.92c-0.65-1.26-0.98-2.75-0.98-4.48
				c0-1.68,0.33-3.16,0.98-4.43c0.65-1.27,1.57-2.26,2.76-2.97c1.19-0.71,2.59-1.07,4.19-1.07c1.08,0,2.09,0.17,3.02,0.52
				c0.93,0.34,1.75,0.86,2.45,1.55s1.25,1.55,1.64,2.59s0.59,2.26,0.59,3.65v1.25h-13.82v-2.81h9.55c0-0.65-0.14-1.23-0.43-1.74
				c-0.28-0.5-0.68-0.9-1.18-1.19s-1.08-0.43-1.74-0.43c-0.69,0-1.3,0.16-1.83,0.47c-0.53,0.32-0.94,0.74-1.24,1.27
				s-0.45,1.12-0.46,1.76v2.67c0,0.81,0.15,1.51,0.45,2.1s0.73,1.04,1.28,1.36s1.21,0.48,1.97,0.48c0.5,0,0.97-0.07,1.38-0.21
				s0.78-0.35,1.08-0.64s0.53-0.63,0.68-1.04l4.2,0.28c-0.21,1.01-0.65,1.89-1.3,2.64c-0.66,0.75-1.5,1.33-2.54,1.75
				C1205.75,198.61,1204.56,198.81,1203.21,198.81z"/>
			<path class="st2" d="M1219.71,198.76c-1.24,0-2.37-0.32-3.37-0.96s-1.8-1.59-2.39-2.84s-0.88-2.79-0.88-4.62
				c0-1.88,0.3-3.44,0.91-4.68s1.41-2.18,2.41-2.8c1-0.62,2.11-0.93,3.31-0.93c0.92,0,1.68,0.15,2.3,0.46s1.11,0.69,1.49,1.15
				c0.38,0.46,0.67,0.91,0.87,1.35h0.14v-8.2h4.53v21.82h-4.47v-2.62h-0.19c-0.21,0.45-0.51,0.9-0.9,1.35
				c-0.39,0.44-0.89,0.81-1.5,1.1S1220.59,198.76,1219.71,198.76z M1221.15,195.15c0.73,0,1.35-0.2,1.86-0.6
				c0.51-0.4,0.9-0.96,1.17-1.69c0.27-0.72,0.41-1.57,0.41-2.55s-0.13-1.82-0.4-2.54c-0.27-0.72-0.66-1.27-1.17-1.66
				s-1.13-0.59-1.86-0.59c-0.75,0-1.38,0.2-1.89,0.61c-0.51,0.4-0.9,0.97-1.16,1.68c-0.26,0.72-0.39,1.55-0.39,2.49
				c0,0.95,0.13,1.79,0.4,2.52s0.65,1.3,1.16,1.7C1219.78,194.94,1220.41,195.15,1221.15,195.15z"/>
			<path class="st2" d="M1235.02,180.02c-0.67,0-1.25-0.22-1.73-0.67s-0.72-0.99-0.72-1.62c0-0.63,0.24-1.17,0.72-1.62
				s1.06-0.68,1.73-0.68c0.67,0,1.25,0.22,1.73,0.67s0.72,0.99,0.72,1.62c0,0.63-0.24,1.17-0.72,1.62
				C1236.27,179.8,1235.7,180.02,1235.02,180.02z M1232.74,198.49v-16.36h4.54v16.36H1232.74z"/>
			<path class="st2" d="M1248.29,198.81c-1.68,0-3.12-0.36-4.32-1.07s-2.13-1.71-2.77-2.98s-0.96-2.73-0.96-4.39
				c0-1.68,0.33-3.15,0.97-4.42c0.65-1.27,1.58-2.26,2.78-2.97c1.2-0.71,2.63-1.07,4.28-1.07c1.43,0,2.68,0.26,3.75,0.78
				s1.92,1.25,2.55,2.18s0.97,2.04,1.03,3.3h-4.28c-0.12-0.82-0.44-1.48-0.95-1.98s-1.19-0.75-2.02-0.75c-0.7,0-1.32,0.19-1.84,0.57
				s-0.93,0.93-1.22,1.66c-0.29,0.72-0.44,1.6-0.44,2.63c0,1.04,0.14,1.93,0.43,2.66c0.29,0.73,0.69,1.29,1.22,1.67
				s1.14,0.58,1.84,0.58c0.52,0,0.99-0.11,1.4-0.32c0.42-0.21,0.76-0.52,1.03-0.93c0.27-0.41,0.45-0.9,0.54-1.48h4.28
				c-0.07,1.25-0.41,2.35-1.02,3.3s-1.44,1.69-2.51,2.22S1249.75,198.81,1248.29,198.81z"/>
			<path class="st2" d="M1267.23,182.13v3.41h-9.85v-3.41H1267.23z M1259.61,178.21h4.54v15.26c0,0.42,0.06,0.74,0.19,0.97
				c0.13,0.23,0.31,0.39,0.54,0.48s0.5,0.14,0.8,0.14c0.21,0,0.43-0.02,0.64-0.06s0.38-0.07,0.49-0.09l0.71,3.38
				c-0.23,0.07-0.55,0.15-0.96,0.25c-0.41,0.1-0.91,0.15-1.5,0.18c-1.09,0.04-2.05-0.1-2.87-0.44c-0.82-0.33-1.46-0.85-1.91-1.56
				c-0.46-0.7-0.68-1.59-0.67-2.66V178.21z"/>
			<path class="st2" d="M1277.63,198.81c-1.68,0-3.13-0.34-4.34-1.03s-2.14-1.66-2.8-2.92c-0.65-1.26-0.98-2.75-0.98-4.48
				c0-1.68,0.33-3.16,0.98-4.43c0.65-1.27,1.57-2.26,2.76-2.97c1.19-0.71,2.59-1.07,4.19-1.07c1.08,0,2.09,0.17,3.02,0.52
				c0.93,0.34,1.75,0.86,2.45,1.55s1.25,1.55,1.64,2.59s0.59,2.26,0.59,3.65v1.25h-13.82v-2.81h9.55c0-0.65-0.14-1.23-0.43-1.74
				c-0.28-0.5-0.68-0.9-1.18-1.19s-1.08-0.43-1.74-0.43c-0.69,0-1.3,0.16-1.83,0.47c-0.53,0.32-0.94,0.74-1.24,1.27
				s-0.45,1.12-0.46,1.76v2.67c0,0.81,0.15,1.51,0.45,2.1s0.73,1.04,1.28,1.36s1.21,0.48,1.97,0.48c0.5,0,0.97-0.07,1.38-0.21
				s0.78-0.35,1.08-0.64s0.53-0.63,0.68-1.04l4.2,0.28c-0.21,1.01-0.65,1.89-1.3,2.64c-0.66,0.75-1.5,1.33-2.54,1.75
				C1280.17,198.61,1278.98,198.81,1277.63,198.81z"/>
			<path class="st2" d="M1294.14,198.76c-1.24,0-2.37-0.32-3.37-0.96s-1.8-1.59-2.39-2.84s-0.88-2.79-0.88-4.62
				c0-1.88,0.3-3.44,0.91-4.68s1.41-2.18,2.41-2.8c1-0.62,2.11-0.93,3.31-0.93c0.92,0,1.68,0.15,2.3,0.46s1.11,0.69,1.49,1.15
				c0.38,0.46,0.67,0.91,0.87,1.35h0.14v-8.2h4.53v21.82h-4.47v-2.62h-0.19c-0.21,0.45-0.51,0.9-0.9,1.35
				c-0.39,0.44-0.89,0.81-1.5,1.1S1295.02,198.76,1294.14,198.76z M1295.58,195.15c0.73,0,1.35-0.2,1.86-0.6
				c0.51-0.4,0.9-0.96,1.17-1.69c0.27-0.72,0.41-1.57,0.41-2.55s-0.13-1.82-0.4-2.54c-0.27-0.72-0.66-1.27-1.17-1.66
				s-1.13-0.59-1.86-0.59c-0.75,0-1.38,0.2-1.89,0.61c-0.51,0.4-0.9,0.97-1.16,1.68c-0.26,0.72-0.39,1.55-0.39,2.49
				c0,0.95,0.13,1.79,0.4,2.52s0.65,1.3,1.16,1.7C1294.2,194.94,1294.83,195.15,1295.58,195.15z"/>
			<path class="st2" d="M1195.91,234.49v-21.82h4.61v18.02h9.35v3.8L1195.91,234.49L1195.91,234.49z"/>
			<path class="st2" d="M1217.51,234.8c-1.04,0-1.97-0.18-2.79-0.55c-0.82-0.37-1.46-0.91-1.93-1.63c-0.47-0.72-0.71-1.62-0.71-2.7
				c0-0.91,0.17-1.67,0.5-2.29s0.79-1.11,1.36-1.49s1.23-0.66,1.97-0.85c0.73-0.19,1.51-0.33,2.32-0.4c0.95-0.1,1.72-0.19,2.3-0.28
				c0.58-0.09,1-0.22,1.27-0.4c0.26-0.18,0.39-0.44,0.39-0.79v-0.06c0-0.67-0.21-1.2-0.63-1.57c-0.42-0.37-1.02-0.55-1.79-0.55
				c-0.82,0-1.47,0.18-1.95,0.54s-0.8,0.81-0.96,1.35l-4.2-0.34c0.21-0.99,0.63-1.86,1.26-2.58s1.43-1.29,2.42-1.68
				s2.14-0.59,3.45-0.59c0.91,0,1.78,0.11,2.62,0.32c0.83,0.21,1.58,0.54,2.23,0.99c0.65,0.45,1.16,1.02,1.54,1.72
				s0.56,1.54,0.56,2.51v11.04h-4.3v-2.27h-0.13c-0.26,0.51-0.61,0.96-1.05,1.35s-0.97,0.69-1.59,0.91
				C1219.04,234.69,1218.32,234.8,1217.51,234.8z M1218.81,231.67c0.67,0,1.26-0.13,1.77-0.4c0.51-0.27,0.91-0.63,1.2-1.08
				c0.29-0.45,0.44-0.97,0.44-1.54v-1.74c-0.14,0.09-0.33,0.18-0.58,0.25s-0.52,0.14-0.83,0.2c-0.3,0.06-0.61,0.11-0.92,0.16
				s-0.58,0.09-0.83,0.12c-0.53,0.08-1,0.2-1.4,0.37s-0.71,0.4-0.93,0.69s-0.33,0.64-0.33,1.07c0,0.62,0.23,1.09,0.68,1.41
				C1217.54,231.51,1218.12,231.67,1218.81,231.67z"/>
			<path class="st2" d="M1230.34,234.49v-21.82h4.54v8.2h0.14c0.2-0.44,0.49-0.89,0.87-1.35s0.88-0.84,1.49-1.15s1.38-0.46,2.3-0.46
				c1.19,0,2.29,0.31,3.3,0.93s1.81,1.56,2.42,2.8s0.91,2.81,0.91,4.68c0,1.83-0.29,3.36-0.88,4.62c-0.59,1.25-1.38,2.2-2.39,2.84
				c-1,0.64-2.13,0.96-3.37,0.96c-0.88,0-1.63-0.15-2.24-0.44s-1.12-0.66-1.51-1.1s-0.69-0.89-0.89-1.35h-0.2v2.62h-4.49V234.49z
				 M1234.78,226.31c0,0.97,0.13,1.82,0.4,2.55c0.27,0.72,0.66,1.29,1.17,1.69c0.51,0.4,1.13,0.6,1.86,0.6
				c0.74,0,1.36-0.2,1.88-0.61c0.51-0.41,0.9-0.98,1.17-1.7s0.4-1.57,0.4-2.52c0-0.94-0.13-1.78-0.39-2.49
				c-0.26-0.72-0.65-1.28-1.16-1.68s-1.14-0.61-1.89-0.61c-0.74,0-1.36,0.2-1.87,0.59s-0.9,0.94-1.17,1.66
				C1234.92,224.49,1234.78,225.34,1234.78,226.31z"/>
			<path class="st2" d="M1256.77,234.81c-1.68,0-3.13-0.34-4.34-1.03s-2.14-1.66-2.8-2.92c-0.65-1.26-0.98-2.75-0.98-4.48
				c0-1.68,0.33-3.16,0.98-4.43c0.65-1.27,1.57-2.26,2.76-2.97c1.19-0.71,2.59-1.07,4.19-1.07c1.08,0,2.09,0.17,3.02,0.52
				c0.93,0.34,1.75,0.86,2.45,1.55s1.25,1.55,1.64,2.59s0.59,2.26,0.59,3.65v1.25h-13.82v-2.81h9.55c0-0.65-0.14-1.23-0.43-1.74
				c-0.28-0.5-0.68-0.9-1.18-1.19s-1.08-0.43-1.74-0.43c-0.69,0-1.3,0.16-1.83,0.47c-0.53,0.32-0.94,0.74-1.24,1.27
				s-0.45,1.12-0.46,1.76v2.67c0,0.81,0.15,1.51,0.45,2.1s0.73,1.04,1.28,1.36s1.21,0.48,1.97,0.48c0.5,0,0.97-0.07,1.38-0.21
				s0.78-0.35,1.08-0.64s0.53-0.63,0.68-1.04l4.2,0.28c-0.21,1.01-0.65,1.89-1.3,2.64c-0.66,0.75-1.5,1.33-2.54,1.75
				C1259.31,234.61,1258.12,234.81,1256.77,234.81z"/>
			<path class="st2" d="M1271.78,212.68v21.82h-4.54v-21.82H1271.78z"/>
		</g>
	</g>
</g>
<g>
	<g>
		<polyline class="st5" points="332.02,207.18 362.54,207.18 369.67,207.18 		"/>
		<g>
			<polygon class="st6" points="366.75,217.15 384.02,207.18 366.75,197.2 			"/>
		</g>
	</g>
</g>
<g>
	<g>
		<polyline class="st7" points="1026.81,207.18 1057.33,207.18 1064.46,207.18 		"/>
		<g>
			<polygon class="st8" points="1061.54,217.15 1078.81,207.18 1061.54,197.2 			"/>
		</g>
	</g>
</g>
<g>
	<g>
		<path class="st2" d="M641.63,446.24v-4.06h19.11v4.06h-7.12v19.22h-4.86v-19.22H641.63z"/>
		<path class="st2" d="M663.81,465.45V448h4.69v3.04h0.18c0.32-1.08,0.85-1.9,1.6-2.46s1.61-0.83,2.59-0.83
			c0.24,0,0.5,0.01,0.78,0.04s0.53,0.07,0.74,0.12v4.3c-0.23-0.07-0.54-0.13-0.94-0.18s-0.77-0.08-1.1-0.08
			c-0.71,0-1.35,0.15-1.9,0.46c-0.56,0.31-1,0.73-1.32,1.28s-0.48,1.17-0.48,1.89v9.88h-4.84V465.45z"/>
		<path class="st2" d="M681.87,465.78c-1.11,0-2.11-0.19-2.98-0.58c-0.87-0.39-1.56-0.97-2.06-1.74s-0.76-1.73-0.76-2.88
			c0-0.97,0.18-1.78,0.53-2.44c0.36-0.66,0.84-1.19,1.46-1.59c0.61-0.4,1.31-0.7,2.1-0.91c0.78-0.2,1.61-0.35,2.47-0.43
			c1.01-0.11,1.83-0.21,2.45-0.3s1.07-0.24,1.35-0.43s0.42-0.47,0.42-0.84v-0.07c0-0.72-0.23-1.28-0.68-1.67s-1.09-0.59-1.92-0.59
			c-0.87,0-1.56,0.19-2.08,0.57s-0.86,0.86-1.02,1.44l-4.48-0.36c0.23-1.06,0.67-1.98,1.34-2.76c0.67-0.78,1.53-1.38,2.58-1.79
			c1.06-0.42,2.28-0.63,3.68-0.63c0.97,0,1.9,0.11,2.79,0.34c0.89,0.23,1.68,0.58,2.38,1.06s1.24,1.09,1.64,1.83
			c0.4,0.75,0.6,1.64,0.6,2.68v11.77h-4.59v-2.42h-0.14c-0.28,0.55-0.66,1.03-1.12,1.44c-0.47,0.41-1.03,0.74-1.69,0.97
			C683.49,465.67,682.73,465.78,681.87,465.78z M683.26,462.44c0.71,0,1.34-0.14,1.89-0.43c0.55-0.28,0.97-0.67,1.28-1.15
			s0.47-1.03,0.47-1.65v-1.85c-0.15,0.1-0.36,0.19-0.62,0.27s-0.55,0.15-0.88,0.22c-0.33,0.06-0.65,0.12-0.98,0.17
			c-0.33,0.05-0.62,0.09-0.89,0.13c-0.57,0.08-1.06,0.22-1.49,0.4c-0.42,0.18-0.75,0.43-0.99,0.73c-0.23,0.31-0.35,0.69-0.35,1.14
			c0,0.66,0.24,1.16,0.72,1.51C681.9,462.27,682.51,462.44,683.26,462.44z"/>
		<path class="st2" d="M697.89,445.75c-0.72,0-1.33-0.24-1.85-0.72c-0.51-0.48-0.77-1.05-0.77-1.73c0-0.67,0.26-1.25,0.77-1.73
			c0.52-0.48,1.13-0.72,1.84-0.72c0.72,0,1.34,0.24,1.85,0.72c0.51,0.48,0.77,1.05,0.77,1.73c0,0.67-0.26,1.25-0.77,1.73
			C699.23,445.51,698.61,445.75,697.89,445.75z M695.46,465.45V448h4.84v17.45H695.46z"/>
		<path class="st2" d="M709,455.36v10.09h-4.84V448h4.61v3.08h0.2c0.39-1.01,1.03-1.82,1.94-2.42s2.01-0.89,3.31-0.89
			c1.21,0,2.27,0.26,3.17,0.79c0.9,0.53,1.6,1.29,2.1,2.27s0.75,2.15,0.75,3.51v11.11h-4.84V455.2c0.01-1.07-0.26-1.9-0.82-2.51
			c-0.55-0.6-1.31-0.9-2.28-0.9c-0.65,0-1.22,0.14-1.72,0.42s-0.88,0.69-1.16,1.22C709.15,453.97,709.01,454.61,709,455.36z"/>
		<path class="st2" d="M726.49,445.75c-0.72,0-1.33-0.24-1.85-0.72c-0.51-0.48-0.77-1.05-0.77-1.73c0-0.67,0.26-1.25,0.77-1.73
			c0.52-0.48,1.13-0.72,1.84-0.72c0.72,0,1.34,0.24,1.85,0.72c0.51,0.48,0.77,1.05,0.77,1.73c0,0.67-0.26,1.25-0.77,1.73
			C727.83,445.51,727.21,445.75,726.49,445.75z M724.06,465.45V448h4.84v17.45H724.06z"/>
		<path class="st2" d="M737.61,455.36v10.09h-4.84V448h4.61v3.08h0.2c0.39-1.01,1.03-1.82,1.94-2.42s2.01-0.89,3.31-0.89
			c1.21,0,2.27,0.26,3.17,0.79c0.9,0.53,1.6,1.29,2.1,2.27s0.75,2.15,0.75,3.51v11.11h-4.84V455.2c0.01-1.07-0.26-1.9-0.82-2.51
			c-0.55-0.6-1.31-0.9-2.28-0.9c-0.65,0-1.22,0.14-1.72,0.42s-0.88,0.69-1.16,1.22C737.76,453.97,737.61,454.61,737.61,455.36z"/>
		<path class="st2" d="M760.53,472.36c-1.57,0-2.91-0.21-4.03-0.64c-1.12-0.43-2-1.01-2.66-1.74c-0.66-0.73-1.09-1.56-1.28-2.48
			l4.48-0.6c0.14,0.35,0.35,0.67,0.65,0.98c0.29,0.3,0.69,0.55,1.18,0.73c0.49,0.19,1.08,0.28,1.79,0.28c1.05,0,1.92-0.26,2.61-0.77
			c0.69-0.51,1.03-1.37,1.03-2.56v-3.19h-0.21c-0.21,0.48-0.53,0.94-0.95,1.38c-0.42,0.43-0.97,0.78-1.64,1.06s-1.46,0.41-2.39,0.41
			c-1.31,0-2.5-0.3-3.57-0.92c-1.07-0.61-1.92-1.54-2.56-2.81c-0.63-1.26-0.95-2.86-0.95-4.79c0-1.98,0.32-3.63,0.97-4.95
			s1.5-2.32,2.57-2.98s2.25-0.99,3.53-0.99c0.98,0,1.79,0.17,2.45,0.49s1.19,0.74,1.6,1.23c0.41,0.49,0.72,0.97,0.94,1.44h0.18V448
			h4.81v17.62c0,1.48-0.36,2.73-1.09,3.73c-0.73,1-1.73,1.75-3.02,2.26S762.19,472.36,760.53,472.36z M760.63,461.57
			c0.78,0,1.44-0.19,1.98-0.58c0.54-0.39,0.96-0.95,1.25-1.68c0.29-0.73,0.44-1.61,0.44-2.63s-0.14-1.91-0.43-2.67
			c-0.29-0.75-0.71-1.34-1.25-1.75c-0.55-0.42-1.21-0.62-1.99-0.62c-0.79,0-1.47,0.21-2.01,0.64c-0.55,0.43-0.96,1.02-1.24,1.78
			s-0.42,1.63-0.42,2.62c0,1.01,0.14,1.88,0.43,2.61c0.28,0.73,0.7,1.29,1.24,1.69C759.17,461.37,759.83,461.57,760.63,461.57z"/>
	</g>
</g>
<path class="st9" d="M1216.5,690h-1022c-16.57,0-30-13.43-30-30V535c0-16.57,13.43-30,30-30h1022c16.57,0,30,13.43,30,30v125
	C1246.5,676.57,1233.07,690,1216.5,690z"/>
<g>
	<path class="st2" d="M285.66,624.55c0-9.34,1.29-15.61,1.29-24.13c0-4.91-3.55-9.76-18.42-9.91v-7.86
		c14.87-0.15,18.42-5,18.42-9.91c0-8.1-1.29-15.21-1.29-24.13c0-13.44,7.66-17.45,23.89-17.45h8.5v7.09h-6.34
		c-12.52,0-15.24,2.97-15.24,11.03c0,7.2,0.73,14.83,0.73,22.73c0,8.74-3.05,12.77-12.04,14.31v0.52
		c8.99,1.55,12.04,5.57,12.04,14.31c0,8.52-0.73,15.1-0.73,22.73c0,8.06,2.72,11.03,15.24,11.03h6.34V642h-8.5
		C293.32,642,285.66,637.99,285.66,624.55z"/>
	<path class="st2" d="M1093.06,634.91h6.24c12.5,0,15.32-2.97,15.32-11.03c0-7.62-0.7-14.2-0.7-22.73c0-8.74,2.95-12.77,11.94-14.31
		v-0.52c-8.99-1.55-11.94-5.57-11.94-14.31c0-7.89,0.7-15.52,0.7-22.73c0-8.06-2.82-11.03-15.32-11.03h-6.24v-7.09h8.39
		c16.34,0,23.79,4.01,23.79,17.45c0,8.92-1.21,16.03-1.21,24.13c0,4.91,3.55,9.76,18.45,9.91v7.86c-14.89,0.15-18.45,5-18.45,9.91
		c0,8.51,1.21,14.79,1.21,24.13c0,13.44-7.45,17.45-23.79,17.45h-8.39V634.91z"/>
</g>
<g>
	<g>
		<path class="st2" d="M863.25,597.21c0-1.67,1.21-2.89,2.79-2.89c1.58,0,2.79,1.22,2.79,2.89c0,1.7-1.21,2.89-2.79,2.89
			C864.46,600.1,863.25,598.91,863.25,597.21z"/>
		<path class="st2" d="M881.81,597.21c0-1.67,1.21-2.89,2.79-2.89c1.58,0,2.79,1.22,2.79,2.89c0,1.7-1.21,2.89-2.79,2.89
			C883.02,600.1,881.81,598.91,881.81,597.21z"/>
		<path class="st2" d="M900.37,597.21c0-1.67,1.21-2.89,2.79-2.89c1.58,0,2.79,1.22,2.79,2.89c0,1.7-1.21,2.89-2.79,2.89
			C901.58,600.1,900.37,598.91,900.37,597.21z"/>
	</g>
</g>
<line class="st10" x1="705.55" y1="505" x2="705.55" y2="474"/>
<g>
	<g>
		<path class="st2" d="M584.44,649.85v-3.8h17.92v3.8h-6.68v18.01h-4.56v-18.01H584.44z"/>
		<path class="st2" d="M605.24,667.87V651.5h4.4v2.85h0.17c0.3-1.02,0.8-1.78,1.5-2.31c0.7-0.52,1.51-0.78,2.43-0.78
			c0.23,0,0.47,0.01,0.73,0.04s0.49,0.07,0.69,0.12v4.03c-0.21-0.06-0.51-0.12-0.88-0.17c-0.38-0.05-0.72-0.07-1.03-0.07
			c-0.67,0-1.26,0.14-1.78,0.43s-0.93,0.69-1.24,1.2c-0.3,0.51-0.45,1.1-0.45,1.77v9.26H605.24z"/>
		<path class="st2" d="M622.17,668.18c-1.04,0-1.97-0.18-2.79-0.55s-1.46-0.91-1.93-1.63c-0.47-0.72-0.71-1.62-0.71-2.7
			c0-0.91,0.17-1.67,0.5-2.29s0.79-1.12,1.36-1.49c0.58-0.38,1.23-0.66,1.97-0.85c0.73-0.19,1.51-0.33,2.32-0.41
			c0.95-0.1,1.72-0.19,2.3-0.28s1-0.22,1.27-0.4s0.39-0.44,0.39-0.79v-0.06c0-0.67-0.21-1.2-0.63-1.57s-1.02-0.55-1.79-0.55
			c-0.82,0-1.47,0.18-1.95,0.54s-0.8,0.81-0.96,1.35l-4.2-0.34c0.21-0.99,0.63-1.86,1.26-2.58c0.62-0.73,1.43-1.29,2.42-1.68
			s2.14-0.59,3.45-0.59c0.91,0,1.78,0.11,2.62,0.32s1.58,0.54,2.23,0.99s1.16,1.02,1.54,1.72c0.38,0.7,0.56,1.54,0.56,2.51v11.04
			h-4.3v-2.27h-0.13c-0.26,0.51-0.61,0.96-1.05,1.35c-0.44,0.39-0.97,0.69-1.59,0.91C623.69,668.07,622.98,668.18,622.17,668.18z
			 M623.47,665.04c0.67,0,1.26-0.13,1.77-0.4s0.91-0.63,1.2-1.08c0.29-0.46,0.44-0.97,0.44-1.54v-1.74
			c-0.14,0.09-0.34,0.18-0.58,0.25s-0.52,0.14-0.83,0.2s-0.61,0.11-0.92,0.16s-0.58,0.09-0.83,0.12c-0.53,0.08-1,0.2-1.4,0.37
			s-0.71,0.4-0.93,0.69s-0.33,0.64-0.33,1.07c0,0.62,0.23,1.09,0.68,1.41C622.2,664.88,622.77,665.04,623.47,665.04z"/>
		<path class="st2" d="M637.19,649.39c-0.67,0-1.25-0.22-1.73-0.67s-0.72-0.99-0.72-1.62s0.24-1.17,0.72-1.62s1.06-0.68,1.73-0.68
			s1.25,0.22,1.73,0.67s0.72,0.99,0.72,1.62s-0.24,1.17-0.72,1.62C638.44,649.17,637.86,649.39,637.19,649.39z M634.91,667.87V651.5
			h4.54v16.36h-4.54V667.87z"/>
		<path class="st2" d="M647.61,658.41v9.46h-4.54V651.5h4.33v2.89h0.19c0.36-0.95,0.97-1.71,1.82-2.26c0.85-0.56,1.89-0.84,3.1-0.84
			c1.14,0,2.13,0.25,2.97,0.75s1.5,1.21,1.97,2.12c0.47,0.92,0.7,2.02,0.7,3.29v10.42h-4.54v-9.61c0.01-1-0.25-1.78-0.77-2.35
			c-0.52-0.57-1.23-0.85-2.14-0.85c-0.61,0-1.15,0.13-1.61,0.39s-0.83,0.64-1.09,1.15C647.75,657.1,647.61,657.7,647.61,658.41z"/>
		<path class="st2" d="M664,649.39c-0.67,0-1.25-0.22-1.73-0.67s-0.72-0.99-0.72-1.62s0.24-1.17,0.72-1.62s1.06-0.68,1.73-0.68
			s1.25,0.22,1.73,0.67s0.72,0.99,0.72,1.62s-0.24,1.17-0.72,1.62C665.25,649.17,664.68,649.39,664,649.39z M661.72,667.87V651.5
			h4.54v16.36h-4.54V667.87z"/>
		<path class="st2" d="M674.42,658.41v9.46h-4.54V651.5h4.33v2.89h0.19c0.36-0.95,0.97-1.71,1.82-2.26c0.85-0.56,1.89-0.84,3.1-0.84
			c1.14,0,2.13,0.25,2.97,0.75s1.5,1.21,1.97,2.12c0.47,0.92,0.7,2.02,0.7,3.29v10.42h-4.54v-9.61c0.01-1-0.25-1.78-0.77-2.35
			c-0.52-0.57-1.23-0.85-2.14-0.85c-0.61,0-1.15,0.13-1.61,0.39s-0.83,0.64-1.09,1.15C674.56,657.1,674.43,657.7,674.42,658.41z"/>
		<path class="st2" d="M695.91,674.34c-1.47,0-2.73-0.2-3.78-0.6c-1.05-0.4-1.88-0.95-2.5-1.63c-0.62-0.69-1.02-1.46-1.2-2.32
			l4.2-0.57c0.13,0.33,0.33,0.63,0.61,0.92c0.28,0.28,0.64,0.51,1.1,0.69s1.02,0.26,1.68,0.26c0.99,0,1.8-0.24,2.45-0.72
			c0.64-0.48,0.96-1.28,0.96-2.4v-2.99h-0.19c-0.2,0.45-0.5,0.88-0.9,1.29c-0.4,0.4-0.91,0.73-1.53,0.99s-1.37,0.38-2.24,0.38
			c-1.23,0-2.35-0.29-3.35-0.86s-1.8-1.45-2.4-2.63c-0.59-1.18-0.89-2.68-0.89-4.49c0-1.85,0.3-3.4,0.91-4.64s1.41-2.17,2.41-2.79
			s2.11-0.93,3.31-0.93c0.92,0,1.68,0.16,2.3,0.46c0.62,0.31,1.12,0.69,1.5,1.15s0.67,0.91,0.88,1.35h0.17v-2.75h4.51v16.52
			c0,1.39-0.34,2.56-1.02,3.49c-0.68,0.94-1.62,1.64-2.83,2.11C698.85,674.11,697.47,674.34,695.91,674.34z M696,664.22
			c0.73,0,1.35-0.18,1.86-0.55s0.9-0.89,1.17-1.58s0.41-1.51,0.41-2.47s-0.14-1.79-0.4-2.5c-0.27-0.71-0.66-1.25-1.17-1.65
			s-1.13-0.59-1.86-0.59c-0.75,0-1.37,0.2-1.89,0.6s-0.9,0.96-1.16,1.67c-0.26,0.71-0.39,1.53-0.39,2.46c0,0.95,0.13,1.76,0.4,2.45
			s0.65,1.21,1.16,1.59C694.63,664.04,695.26,664.22,696,664.22z"/>
		<path class="st2" d="M722.31,667.87h-7.73v-21.82h7.8c2.19,0,4.08,0.44,5.67,1.31c1.58,0.87,2.8,2.12,3.66,3.74
			c0.86,1.63,1.28,3.57,1.28,5.84s-0.43,4.23-1.28,5.86c-0.86,1.63-2.08,2.89-3.68,3.76S724.52,667.87,722.31,667.87z
			 M719.19,663.92h2.93c1.36,0,2.51-0.24,3.45-0.73c0.93-0.49,1.64-1.24,2.11-2.27s0.71-2.35,0.71-3.98c0-1.61-0.24-2.93-0.71-3.95
			c-0.47-1.02-1.17-1.78-2.1-2.26s-2.08-0.72-3.44-0.72h-2.94v13.91H719.19z"/>
		<path class="st2" d="M740.97,668.18c-1.04,0-1.97-0.18-2.79-0.55s-1.46-0.91-1.93-1.63c-0.47-0.72-0.71-1.62-0.71-2.7
			c0-0.91,0.17-1.67,0.5-2.29s0.79-1.12,1.36-1.49c0.58-0.38,1.23-0.66,1.97-0.85s1.51-0.33,2.32-0.41c0.95-0.1,1.72-0.19,2.3-0.28
			s1-0.22,1.27-0.4s0.39-0.44,0.39-0.79v-0.06c0-0.67-0.21-1.2-0.63-1.57s-1.02-0.55-1.79-0.55c-0.82,0-1.47,0.18-1.95,0.54
			c-0.48,0.36-0.8,0.81-0.96,1.35l-4.2-0.34c0.21-0.99,0.63-1.86,1.26-2.58c0.62-0.73,1.43-1.29,2.42-1.68s2.14-0.59,3.45-0.59
			c0.91,0,1.78,0.11,2.62,0.32c0.83,0.21,1.58,0.54,2.23,0.99c0.65,0.45,1.16,1.02,1.54,1.72c0.38,0.7,0.56,1.54,0.56,2.51v11.04
			h-4.3v-2.27h-0.13c-0.26,0.51-0.61,0.96-1.05,1.35c-0.44,0.39-0.97,0.69-1.59,0.91C742.5,668.07,741.78,668.18,740.97,668.18z
			 M742.27,665.04c0.67,0,1.26-0.13,1.77-0.4s0.91-0.63,1.2-1.08c0.29-0.46,0.44-0.97,0.44-1.54v-1.74
			c-0.14,0.09-0.34,0.18-0.58,0.25s-0.52,0.14-0.83,0.2s-0.61,0.11-0.92,0.16s-0.58,0.09-0.83,0.12c-0.53,0.08-1,0.2-1.4,0.37
			s-0.71,0.4-0.93,0.69s-0.33,0.64-0.33,1.07c0,0.62,0.23,1.09,0.68,1.41S741.58,665.04,742.27,665.04z"/>
		<path class="st2" d="M762.42,651.5v3.41h-9.85v-3.41H762.42z M754.8,647.58h4.54v15.26c0,0.42,0.06,0.74,0.19,0.97
			s0.31,0.39,0.54,0.48c0.23,0.09,0.5,0.14,0.8,0.14c0.21,0,0.43-0.02,0.64-0.06s0.38-0.07,0.49-0.09l0.71,3.38
			c-0.23,0.07-0.55,0.15-0.96,0.25s-0.91,0.15-1.5,0.18c-1.09,0.04-2.05-0.1-2.87-0.44s-1.46-0.85-1.91-1.56
			c-0.46-0.7-0.68-1.59-0.67-2.66V647.58z"/>
		<path class="st2" d="M770.03,668.18c-1.04,0-1.97-0.18-2.79-0.55s-1.46-0.91-1.93-1.63c-0.47-0.72-0.71-1.62-0.71-2.7
			c0-0.91,0.17-1.67,0.5-2.29s0.79-1.12,1.36-1.49c0.58-0.38,1.23-0.66,1.97-0.85c0.73-0.19,1.51-0.33,2.32-0.41
			c0.95-0.1,1.72-0.19,2.3-0.28s1-0.22,1.27-0.4s0.39-0.44,0.39-0.79v-0.06c0-0.67-0.21-1.2-0.63-1.57s-1.02-0.55-1.79-0.55
			c-0.82,0-1.47,0.18-1.95,0.54c-0.48,0.36-0.8,0.81-0.96,1.35l-4.2-0.34c0.21-0.99,0.63-1.86,1.26-2.58
			c0.62-0.73,1.43-1.29,2.42-1.68s2.14-0.59,3.45-0.59c0.91,0,1.78,0.11,2.62,0.32c0.83,0.21,1.58,0.54,2.23,0.99
			c0.65,0.45,1.16,1.02,1.54,1.72c0.38,0.7,0.56,1.54,0.56,2.51v11.04h-4.3v-2.27h-0.13c-0.26,0.51-0.61,0.96-1.05,1.35
			c-0.44,0.39-0.97,0.69-1.59,0.91C771.56,668.07,770.84,668.18,770.03,668.18z M771.33,665.04c0.67,0,1.26-0.13,1.77-0.4
			s0.91-0.63,1.2-1.08c0.29-0.46,0.44-0.97,0.44-1.54v-1.74c-0.14,0.09-0.33,0.18-0.58,0.25s-0.52,0.14-0.83,0.2
			c-0.3,0.06-0.61,0.11-0.92,0.16s-0.58,0.09-0.83,0.12c-0.53,0.08-1,0.2-1.4,0.37s-0.71,0.4-0.93,0.69s-0.33,0.64-0.33,1.07
			c0,0.62,0.23,1.09,0.68,1.41C770.06,664.88,770.64,665.04,771.33,665.04z"/>
		<path class="st2" d="M796.39,656.17l-4.15,0.26c-0.07-0.36-0.22-0.68-0.46-0.96c-0.23-0.29-0.54-0.52-0.92-0.69
			s-0.83-0.26-1.36-0.26c-0.7,0-1.3,0.15-1.78,0.44s-0.72,0.69-0.72,1.18c0,0.39,0.16,0.72,0.47,0.99s0.85,0.49,1.61,0.65l2.96,0.6
			c1.59,0.33,2.78,0.85,3.56,1.58c0.78,0.72,1.17,1.68,1.17,2.85c0,1.07-0.31,2.01-0.94,2.82s-1.49,1.44-2.58,1.89
			s-2.34,0.68-3.77,0.68c-2.17,0-3.89-0.45-5.17-1.36c-1.28-0.91-2.03-2.14-2.25-3.7l4.46-0.23c0.13,0.66,0.46,1.16,0.98,1.51
			s1.18,0.52,1.99,0.52c0.79,0,1.44-0.15,1.92-0.46c0.49-0.31,0.73-0.71,0.74-1.2c-0.01-0.41-0.18-0.75-0.52-1.02
			s-0.87-0.47-1.58-0.61l-2.83-0.56c-1.6-0.32-2.79-0.87-3.56-1.66c-0.78-0.79-1.17-1.79-1.17-3.01c0-1.05,0.29-1.96,0.86-2.72
			c0.57-0.76,1.38-1.35,2.42-1.76c1.04-0.41,2.26-0.62,3.66-0.62c2.07,0,3.69,0.44,4.88,1.31
			C795.5,653.47,796.19,654.66,796.39,656.17z"/>
		<path class="st2" d="M807.09,668.19c-1.68,0-3.13-0.34-4.34-1.03s-2.14-1.66-2.8-2.92c-0.65-1.26-0.98-2.75-0.98-4.48
			c0-1.68,0.33-3.16,0.98-4.43c0.65-1.27,1.57-2.26,2.76-2.97c1.19-0.71,2.59-1.07,4.19-1.07c1.08,0,2.09,0.17,3.02,0.52
			c0.93,0.34,1.75,0.86,2.45,1.55s1.25,1.55,1.64,2.59c0.39,1.04,0.59,2.26,0.59,3.65v1.25h-13.82v-2.81h9.55
			c0-0.65-0.14-1.23-0.43-1.74c-0.28-0.5-0.68-0.9-1.18-1.19s-1.08-0.43-1.74-0.43c-0.69,0-1.3,0.16-1.83,0.47
			c-0.53,0.32-0.94,0.74-1.24,1.27s-0.45,1.12-0.46,1.76v2.67c0,0.81,0.15,1.51,0.45,2.1s0.73,1.04,1.28,1.36
			c0.55,0.32,1.21,0.48,1.97,0.48c0.5,0,0.97-0.07,1.38-0.21c0.42-0.14,0.78-0.36,1.08-0.64s0.53-0.63,0.68-1.04l4.2,0.28
			c-0.21,1.01-0.65,1.89-1.31,2.64s-1.5,1.33-2.54,1.75C809.63,667.98,808.44,668.19,807.09,668.19z"/>
		<path class="st2" d="M826.26,651.5v3.41h-9.85v-3.41H826.26z M818.65,647.58h4.54v15.26c0,0.42,0.06,0.74,0.19,0.97
			s0.31,0.39,0.54,0.48c0.23,0.09,0.5,0.14,0.8,0.14c0.21,0,0.43-0.02,0.64-0.06s0.38-0.07,0.49-0.09l0.71,3.38
			c-0.23,0.07-0.55,0.15-0.96,0.25s-0.91,0.15-1.5,0.18c-1.09,0.04-2.05-0.1-2.87-0.44s-1.46-0.85-1.91-1.56
			c-0.46-0.7-0.68-1.59-0.67-2.66V647.58z"/>
	</g>
</g>
<g>
	<path class="st3" d="M441.61,606.57H324.9c-2.77,0-5.02-2.25-5.02-5.02v-40.66c0-2.77,2.25-5.02,5.02-5.02h116.7
		c2.77,0,5.02,2.25,5.02,5.02v40.66C446.62,604.32,444.38,606.57,441.61,606.57z"/>
	<path class="st4" d="M462.06,623.4h-116.7c-2.77,0-5.02-2.25-5.02-5.02v-40.66c0-2.77,2.25-5.02,5.02-5.02h116.7
		c2.77,0,5.02,2.25,5.02,5.02v40.66C467.08,621.16,464.83,623.4,462.06,623.4z"/>
</g>
<g>
	<path class="st3" d="M621.89,606.57h-116.7c-2.77,0-5.02-2.25-5.02-5.02v-40.66c0-2.77,2.25-5.02,5.02-5.02h116.7
		c2.77,0,5.02,2.25,5.02,5.02v40.66C626.91,604.32,624.66,606.57,621.89,606.57z"/>
	<path class="st4" d="M642.35,623.4h-116.7c-2.77,0-5.02-2.25-5.02-5.02v-40.66c0-2.77,2.25-5.02,5.02-5.02h116.7
		c2.77,0,5.02,2.25,5.02,5.02v40.66C647.36,621.16,645.12,623.4,642.35,623.4z"/>
</g>
<g>
	<path class="st3" d="M802.18,606.57h-116.7c-2.77,0-5.02-2.25-5.02-5.02v-40.66c0-2.77,2.25-5.02,5.02-5.02h116.7
		c2.77,0,5.02,2.25,5.02,5.02v40.66C807.19,604.32,804.95,606.57,802.18,606.57z"/>
	<path class="st4" d="M822.63,623.4h-116.7c-2.77,0-5.02-2.25-5.02-5.02v-40.66c0-2.77,2.25-5.02,5.02-5.02h116.7
		c2.77,0,5.02,2.25,5.02,5.02v40.66C827.65,621.16,825.4,623.4,822.63,623.4z"/>
</g>
<g>
	<path class="st3" d="M1053.18,606.57h-116.7c-2.77,0-5.02-2.25-5.02-5.02v-40.66c0-2.77,2.25-5.02,5.02-5.02h116.7
		c2.77,0,5.02,2.25,5.02,5.02v40.66C1058.19,604.32,1055.95,606.57,1053.18,606.57z"/>
	<path class="st4" d="M1073.63,623.4h-116.7c-2.77,0-5.02-2.25-5.02-5.02v-40.66c0-2.77,2.25-5.02,5.02-5.02h116.7
		c2.77,0,5.02,2.25,5.02,5.02v40.66C1078.65,621.16,1076.4,623.4,1073.63,623.4z"/>
</g>
<g>
	<g>
		<line class="st10" x1="705.93" y1="432.18" x2="705.93" y2="412.66"/>
		<g>
			<polygon class="st2" points="713.91,415 705.93,401.18 697.95,415 			"/>
		</g>
	</g>
</g>
</svg>
